<svg xmlns="http://www.w3.org/2000/svg" viewBox="0 0 48 48" width="48" height="48">
  <!-- Configuración -->
  <defs>
    <linearGradient id="settingsGrad" x1="0%" y1="0%" x2="100%" y2="100%">
      <stop offset="0%" style="stop-color:#A9A9A9"/>
      <stop offset="100%" style="stop-color:#808080"/>
    </linearGradient>
  </defs>
  
  <!-- Sombra -->
  <circle cx="24" cy="26" r="16" fill="#2D2D2D" opacity="0.2"/>
  
  <!-- Engranaje exterior -->
  <path d="M 24,6 L 26,10 L 30,8 L 30,12 L 34,12 L 32,16 L 36,18 L 32,20 L 34,24 L 30,24 L 30,28 L 26,26 L 24,30 L 22,26 L 18,28 L 18,24 L 14,24 L 16,20 L 12,18 L 16,16 L 14,12 L 18,12 L 18,8 L 22,10 Z" 
        fill="url(#settingsGrad)" stroke="#696969" stroke-width="0.5"/>
  
  <!-- Círculo interior -->
  <circle cx="24" cy="18" r="6" fill="#2D2D2D" stroke="#696969" stroke-width="1"/>
  
  <!-- Centro -->
  <circle cx="24" cy="18" r="2.5" fill="#FF91A4"/>
  
  <!-- Engranaje pequeño (fondo) -->
  <circle cx="36" cy="32" r="8" fill="url(#settingsGrad)" stroke="#696969" stroke-width="0.5"/>
  <circle cx="36" cy="32" r="3" fill="#2D2D2D"/>
  <circle cx="36" cy="32" r="1.5" fill="#FF91A4"/>
  
  <!-- Brillo -->
  <ellipse cx="20" cy="12" rx="4" ry="3" fill="white" opacity="0.3" transform="rotate(-30 20 12)"/>
</svg>