<svg xmlns="http://www.w3.org/2000/svg" viewBox="0 0 48 48" width="48" height="48">
  <!-- Escritorio -->
  <defs>
    <linearGradient id="deskGrad" x1="0%" y1="0%" x2="100%" y2="100%">
      <stop offset="0%" style="stop-color:#CE93D8"/>
      <stop offset="100%" style="stop-color:#AB47BC"/>
    </linearGradient>
  </defs>
  
  <!-- Sombra -->
  <rect x="6" y="14" width="36" height="26" rx="2" fill="#2D2D2D" opacity="0.2"/>
  
  <!-- Carpeta trasera -->
  <path d="M 4,14 L 4,36 Q 4,38 6,38 L 42,38 Q 44,38 44,36 L 44,14 Q 44,12 42,12 L 20,12 L 17,8 L 6,8 Q 4,8 4,10 Z" 
        fill="#A9A9A9" stroke="#808080" stroke-width="0.5"/>
  
  <!-- Carpeta delantera -->
  <path d="M 4,18 L 4,38 Q 4,40 6,40 L 42,40 Q 44,40 44,38 L 44,18 Q 44,16 42,16 L 6,16 Q 4,16 4,18 Z" 
        fill="url(#deskGrad)" stroke="#9C27B0" stroke-width="0.5"/>
  
  <!-- Monitor -->
  <rect x="16" y="22" width="16" height="12" rx="1" fill="#2D2D2D"/>
  <rect x="17" y="23" width="14" height="10" fill="#64B5F6"/>
  <rect x="22" y="34" width="4" height="2" fill="#A9A9A9"/>
  <rect x="18" y="36" width="12" height="1" rx="0.5" fill="#A9A9A9"/>
  
  <!-- Brillo -->
  <path d="M 6,18 L 42,18 L 42,20 L 6,20 Z" fill="white" opacity="0.3"/>
</svg>