<svg xmlns="http://www.w3.org/2000/svg" viewBox="0 0 48 48" width="48" height="48">
  <!-- Casa/Inicio -->
  <defs>
    <linearGradient id="homeGrad" x1="0%" y1="0%" x2="100%" y2="100%">
      <stop offset="0%" style="stop-color:#FFC1CC"/>
      <stop offset="100%" style="stop-color:#FFB5C5"/>
    </linearGradient>
  </defs>
  
  <!-- Sombra -->
  <path d="M 24,8 L 44,26 L 40,26 L 40,42 L 8,42 L 8,26 L 4,26 Z" fill="#2D2D2D" opacity="0.2" transform="translate(1,1)"/>
  
  <!-- Casa -->
  <path d="M 24,6 L 44,24 L 40,24 L 40,42 L 8,42 L 8,24 L 4,24 Z" fill="url(#homeGrad)" stroke="#FF91A4" stroke-width="1" stroke-linejoin="round"/>
  
  <!-- Puerta -->
  <rect x="18" y="30" width="12" height="12" rx="1" fill="#A9A9A9" stroke="#808080" stroke-width="0.5"/>
  <circle cx="27" cy="36" r="1" fill="#FF91A4"/>
  
  <!-- Ventana -->
  <rect x="10" y="28" width="6" height="6" rx="0.5" fill="#64B5F6" stroke="#A9A9A9" stroke-width="0.5"/>
  <line x1="13" y1="28" x2="13" y2="34" stroke="#A9A9A9" stroke-width="0.3"/>
  <line x1="10" y1="31" x2="16" y2="31" stroke="#A9A9A9" stroke-width="0.3"/>
  
  <!-- Chimenea -->
  <rect x="32" y="14" width="4" height="10" fill="#A9A9A9"/>
  
  <!-- Brillo -->
  <path d="M 24,8 L 40,22 L 38,22 L 38,24 L 10,24 L 10,22 L 8,22 Z" fill="white" opacity="0.3"/>
</svg>